<?xml version="1.0" standalone="no"?>
<!DOCTYPE svg PUBLIC "-//W3C//DTD SVG 20010904//EN"
 "http://www.w3.org/TR/2001/REC-SVG-20010904/DTD/svg10.dtd">
<svg version="1.0" xmlns="http://www.w3.org/2000/svg"
 width="300.000000pt" height="300.000000pt" viewBox="0 0 300.000000 300.000000"
 preserveAspectRatio="xMidYMid meet">
<metadata>
Created by potrace 1.10, written by Peter Selinger 2001-2011
</metadata>
<g transform="translate(0.000000,300.000000) scale(0.100000,-0.100000)"
fill="#000000" stroke="none">
<path d="M2375 2817 c-77 -119 -276 -306 -405 -379 -96 -54 -199 -108 -205
-108 -4 0 -2 7 5 15 7 8 10 15 7 15 -2 0 -83 -36 -178 -81 -96 -44 -195 -84
-220 -88 -97 -16 -192 47 -287 185 -47 71 -102 104 -170 104 -81 0 -133 -36
-155 -107 -7 -23 -28 -54 -53 -76 l-41 -37 -22 24 -22 24 20 33 c27 43 29 102
4 97 -26 -5 -44 -48 -38 -90 6 -45 -6 -49 -34 -9 -31 44 -27 90 10 126 54 50
70 115 29 115 -36 0 -67 -58 -72 -134 -2 -26 -9 -48 -16 -51 -7 -3 -11 -1 -8
4 4 5 -6 31 -20 59 l-25 49 25 38 c27 40 34 79 15 91 -17 10 -41 -21 -48 -62
l-6 -37 -37 76 c-38 76 -74 115 -91 98 -13 -13 19 -63 54 -87 25 -16 104 -152
95 -161 -2 -2 -19 12 -39 32 -39 39 -91 50 -85 18 3 -18 48 -44 102 -60 16 -4
36 -18 44 -31 l15 -24 -39 7 c-21 4 -58 16 -82 27 -70 33 -176 9 -127 -29 16
-12 38 -14 103 -9 50 3 82 1 82 -5 0 -5 -29 -23 -65 -41 -36 -17 -75 -42 -85
-56 -26 -32 -27 -72 -2 -72 21 0 45 25 90 91 35 53 55 64 84 48 24 -13 17 -22
-19 -23 -18 -1 -29 -7 -31 -18 -4 -23 33 -24 46 -2 9 16 57 23 70 9 4 -3 -1
-11 -11 -17 -10 -5 -43 -30 -73 -54 -29 -24 -60 -44 -67 -44 -41 0 -87 -86
-57 -105 19 -12 61 25 79 68 19 44 82 113 66 72 -4 -11 -13 -40 -19 -65 -6
-25 -16 -54 -23 -65 -33 -60 -18 -148 21 -116 24 20 36 77 25 111 -6 15 -9 45
-7 66 l3 38 26 -40 c19 -28 25 -48 22 -70 -4 -24 0 -35 18 -47 48 -34 82 31
40 77 -10 12 -21 37 -25 56 l-6 35 30 -34 c29 -32 33 -33 48 -17 22 22 5 51
-30 51 -33 0 -58 22 -58 52 0 31 24 39 58 18 41 -26 111 -106 123 -142 6 -18
15 -33 20 -33 18 0 9 29 -25 78 -38 56 -34 62 34 62 31 0 44 -6 68 -34 30 -34
36 -54 62 -204 17 -98 65 -211 111 -265 52 -60 63 -54 16 10 -39 54 -70 121
-61 134 3 5 1 9 -4 9 -11 0 -39 111 -47 190 -4 30 -19 80 -34 109 -24 49 -32
57 -76 72 -35 12 -45 19 -34 24 9 3 22 26 29 50 10 37 60 104 60 81 0 -5 7 -3
15 4 22 18 102 14 138 -8 37 -21 80 -79 70 -96 -3 -6 -3 -8 1 -4 4 3 24 -12
44 -35 55 -63 80 -83 140 -113 53 -27 57 -27 130 -17 41 6 77 15 81 20 3 5 31
19 61 32 30 13 92 41 137 62 45 21 88 37 95 34 42 -16 287 131 431 258 95 84
102 91 99 101 -2 6 -1 8 3 4 8 -8 55 44 55 61 0 5 9 15 21 21 19 11 20 10 8
-12 -7 -13 -30 -47 -52 -75 -39 -53 -43 -83 -11 -83 20 0 95 53 183 130 56 48
62 51 48 25 -8 -16 -38 -53 -67 -82 -28 -29 -49 -57 -45 -63 10 -16 57 -10 90
10 31 20 154 80 163 80 13 0 -48 -56 -105 -97 -35 -25 -63 -49 -63 -54 0 -15
43 -28 61 -18 9 4 19 5 23 2 3 -3 6 -1 6 5 0 6 9 9 20 7 11 -2 22 1 25 6 4 5
10 7 15 4 5 -3 11 -1 15 5 3 5 13 10 22 10 13 0 13 -3 3 -15 -20 -24 -67 -56
-90 -60 -11 -2 -26 -7 -33 -12 -6 -4 -14 -8 -17 -8 -3 0 -17 -9 -31 -20 -21
-17 -24 -23 -13 -33 7 -6 25 -10 41 -7 72 12 121 12 116 -2 -3 -7 -9 -13 -13
-13 -5 0 -15 -6 -22 -13 -12 -12 -113 -54 -145 -61 -49 -9 -14 -43 54 -52 54
-6 55 -7 36 -25 -11 -12 -53 -26 -103 -37 -101 -21 -108 -36 -35 -71 43 -20
47 -25 32 -35 -9 -7 -44 -14 -79 -15 -35 -1 -66 -7 -70 -14 -4 -7 6 -26 25
-45 26 -27 29 -34 17 -42 -22 -14 -26 -14 -91 -7 -56 7 -75 -3 -61 -30 6 -11
18 -25 26 -33 39 -32 -2 -40 -75 -15 -36 13 -45 13 -57 2 -11 -12 -10 -19 7
-48 12 -19 21 -37 21 -41 0 -14 -36 -8 -76 11 -43 21 -54 20 -34 -4 32 -39
104 -57 128 -33 18 18 15 38 -14 75 l-26 35 41 -21 c40 -21 85 -27 115 -15 27
10 19 50 -16 79 -21 17 -25 24 -13 20 130 -48 233 38 108 90 -19 8 -9 10 51
10 59 1 79 5 95 19 43 39 19 69 -67 83 -45 8 -34 14 32 18 78 5 121 21 152 58
24 29 25 32 8 44 -10 7 -47 13 -83 14 l-66 1 64 14 c35 8 82 26 105 40 52 33
92 82 79 95 -9 9 -105 0 -182 -17 -20 -4 -23 -3 -11 5 8 6 22 11 31 11 55 0
199 106 199 145 0 22 -23 18 -135 -19 -55 -19 -102 -32 -104 -31 -1 2 24 17
56 34 61 30 110 77 138 131 9 17 13 35 10 40 -6 9 -203 -88 -260 -127 -43 -29
-34 -11 13 26 60 48 85 81 106 144 19 57 19 57 3 57 -7 0 -31 -18 -52 -41 -42
-43 -231 -199 -241 -199 -3 0 14 24 39 53 24 28 52 67 62 86 19 37 33 141 19
141 -5 0 -27 -28 -49 -63z m-1771 -292 c-4 -8 -11 -15 -16 -15 -6 0 -5 6 2 15
7 8 14 15 16 15 2 0 1 -7 -2 -15z m-58 -162 c13 -14 22 -28 20 -30 -6 -6 -83
34 -91 47 -14 23 47 9 71 -17z m9 -212 c-4 -9 -16 2 -35 33 -30 47 -30 55 -1
89 14 17 16 14 28 -45 7 -35 11 -69 8 -77z m-175 4 c-7 -9 -15 -13 -19 -10 -3
3 1 10 9 15 21 14 24 12 10 -5z m199 -74 c-15 -5 -22 6 -14 19 6 9 10 9 16 -1
5 -8 4 -15 -2 -18z"/>
<path d="M840 2404 c0 -8 -4 -14 -10 -14 -20 0 -9 -45 15 -63 14 -10 25 -13
25 -7 0 5 7 10 15 10 16 0 17 2 20 43 1 15 0 25 -3 22 -3 -3 -12 1 -20 7 -20
17 -42 18 -42 2z m40 -32 c0 -10 -3 -22 -7 -25 -10 -11 -32 13 -26 29 8 20 33
17 33 -4z"/>
<path d="M748 1954 c-191 -78 -281 -98 -449 -98 -143 -1 -145 -1 -122 -19 13
-11 52 -24 86 -30 62 -10 142 -3 132 12 -4 7 107 27 128 23 4 -1 7 2 7 6 0 4
8 8 18 9 20 2 133 37 167 52 53 24 125 51 134 51 6 0 11 -5 11 -11 0 -26 86
-182 121 -219 53 -56 70 -50 20 6 -44 50 -94 147 -113 219 -7 25 -17 44 -23
44 -5 -1 -58 -21 -117 -45z"/>
<path d="M2010 1830 c0 -8 4 -30 9 -48 11 -38 5 -40 -51 -11 -42 21 -53 18
-60 -16 -5 -27 -29 -30 -57 -6 -24 21 -51 18 -51 -4 0 -25 -21 -27 -46 -4 -21
19 -27 21 -50 11 -22 -10 -29 -9 -51 8 -49 38 -60 21 -14 -21 49 -44 77 -47
74 -9 l-3 25 23 -27 c29 -36 71 -52 87 -33 8 10 8 19 0 34 -15 29 -7 26 28 -9
21 -20 40 -30 61 -30 28 0 31 3 31 29 0 17 -4 33 -10 36 -5 3 -10 11 -10 17 0
5 16 -4 35 -21 59 -51 127 -36 96 22 -30 57 -41 71 -41 57z"/>
<path d="M320 1784 c-36 -8 -99 -18 -140 -23 -74 -7 -74 -8 -45 -21 40 -18
236 -26 265 -10 12 6 24 9 27 6 8 -8 -77 -45 -137 -59 -55 -13 -62 -21 -27
-31 51 -14 143 -5 200 18 65 27 61 13 -9 -31 -24 -15 -42 -32 -41 -38 2 -5 29
-10 60 -10 47 0 64 6 102 33 25 17 48 32 51 32 3 0 -8 -17 -25 -37 -49 -60
-39 -82 30 -62 25 8 50 25 66 46 35 46 23 52 -26 12 -42 -33 -64 -33 -43 1 14
23 15 30 4 48 -7 10 -22 6 -66 -18 -32 -16 -64 -30 -72 -30 -21 0 -17 18 6 25
21 7 37 46 26 64 -4 6 -17 6 -39 0 -17 -6 -40 -12 -50 -14 -10 -2 -28 -7 -40
-10 -17 -5 -15 0 12 23 45 38 35 55 -30 50 -58 -5 -63 3 -14 21 19 7 35 17 35
22 0 11 3 11 -80 -7z"/>
<path d="M1590 1753 c0 -18 41 -88 82 -139 50 -63 126 -104 263 -141 102 -27
162 -46 169 -54 6 -5 20 -9 32 -9 28 0 59 -29 46 -42 -7 -7 -31 -7 -69 0 -94
16 -83 -7 14 -29 45 -10 56 -10 77 5 15 9 26 21 26 27 0 24 -57 59 -138 83
-206 62 -339 110 -361 130 -13 11 -45 53 -72 93 -47 69 -69 93 -69 76z"/>
<path d="M712 1588 c-5 -18 -7 -39 -4 -45 10 -29 92 0 92 33 0 8 5 14 10 14 6
0 10 -10 10 -23 0 -54 54 -64 75 -14 8 17 14 26 15 19 0 -7 11 -24 25 -38 21
-21 29 -23 40 -14 8 7 15 23 15 35 0 23 1 23 30 -7 35 -34 56 -32 53 6 l-2 27
26 -21 c46 -36 102 -17 58 20 -8 7 -15 17 -15 23 0 5 8 3 18 -5 9 -9 42 -28
72 -43 30 -15 56 -29 58 -30 2 -2 -6 -13 -17 -24 -12 -12 -21 -34 -21 -50 0
-38 35 -81 66 -81 27 0 31 12 9 30 -14 12 -21 50 -9 50 3 0 14 -10 24 -22 23
-29 37 -17 22 17 -21 45 -16 55 18 44 16 -6 27 -15 24 -20 -3 -6 1 -20 10 -33
8 -13 13 -32 11 -42 -2 -11 -13 -58 -25 -106 -23 -100 -25 -157 -7 -182 30
-40 87 38 87 119 0 18 4 36 9 39 5 4 9 -29 8 -76 -2 -91 22 -160 56 -166 28
-6 50 58 41 124 -4 37 -3 54 5 54 6 0 11 -16 11 -35 0 -75 60 -195 96 -195 33
0 41 65 19 150 -4 14 7 -3 24 -37 56 -111 122 -157 129 -90 2 16 -4 46 -12 68
-22 55 -20 58 13 13 36 -51 87 -94 111 -94 9 0 23 7 30 15 16 19 -8 87 -45
127 -39 42 -29 44 16 3 75 -67 159 -84 159 -31 0 29 -26 62 -90 116 -67 56
-64 34 5 -35 30 -30 55 -62 55 -70 0 -24 -43 -11 -98 28 -66 48 -67 48 -80 27
-9 -15 -9 -22 2 -33 23 -23 55 -88 50 -101 -3 -7 -11 -13 -19 -13 -8 0 -12 4
-9 9 3 4 1 8 -4 8 -4 0 -30 21 -56 46 -44 42 -50 44 -64 30 -13 -12 -13 -20
-4 -41 14 -30 16 -65 4 -65 -13 0 -35 28 -67 85 -49 86 -65 83 -65 -11 0 -46
-4 -64 -12 -62 -6 2 -15 11 -18 19 -4 8 -14 28 -23 45 -9 17 -19 49 -23 72 -7
45 -25 67 -48 59 -11 -4 -16 -25 -18 -73 -5 -120 -43 -76 -47 55 -2 54 -14 91
-30 91 -11 0 -30 -39 -35 -74 -5 -29 -31 -76 -43 -76 -16 0 28 255 48 274 3 3
16 7 29 9 42 7 36 33 -12 54 -20 9 -29 9 -34 1 -4 -7 -12 -1 -20 14 -18 34
-71 45 -94 21 -9 -10 -19 -26 -23 -35 -8 -22 -27 -24 -27 -3 0 8 4 15 9 15 5
0 11 10 14 22 8 28 -23 63 -70 80 -18 7 -33 15 -33 19 0 4 -12 9 -27 12 -29 5
-57 -9 -47 -24 3 -5 -9 -6 -27 -2 -24 4 -35 2 -44 -11 -11 -14 -14 -15 -25 -1
-18 21 -47 19 -60 -6 -11 -20 -12 -20 -35 5 -30 32 -42 33 -57 1 -14 -32 -22
-31 -36 0 -17 38 -38 41 -65 9 -27 -31 -50 -25 -41 12 4 14 2 24 -5 24 -6 0
-14 -15 -19 -32z m778 -148 c24 -8 24 -8 -7 -9 -17 -1 -35 4 -38 9 -7 11 9 11
45 0z"/>
<path d="M2030 1352 c0 -4 18 -19 41 -32 22 -14 47 -31 55 -38 8 -7 14 -11 14
-7 0 3 11 -5 25 -19 14 -14 25 -30 25 -37 0 -16 -66 -3 -108 22 -49 28 -62 23
-25 -11 61 -55 163 -66 163 -16 0 22 -26 57 -61 84 -25 19 -129 62 -129 54z"/>
</g>
</svg>
